<?xml version="1.0" encoding="UTF-8" standalone="no"?>
<!DOCTYPE svg PUBLIC "-//W3C//DTD SVG 1.1//EN" "http://www.w3.org/Graphics/SVG/1.1/DTD/svg11.dtd">
<svg width="100%" height="100%" viewBox="0 0 512 512" version="1.1" xmlns="http://www.w3.org/2000/svg" xmlns:xlink="http://www.w3.org/1999/xlink" xml:space="preserve" xmlns:serif="http://www.serif.com/" style="fill-rule:evenodd;clip-rule:evenodd;stroke-linejoin:round;stroke-miterlimit:2;">
    <g transform="matrix(300,0,0,300,26.3908,367.3)">
        <path d="M-0.009,-0L0.303,-0.7L0.463,-0.7L0.776,-0L0.606,-0L0.35,-0.618L0.414,-0.618L0.157,-0L-0.009,-0ZM0.147,-0.15L0.19,-0.273L0.55,-0.273L0.594,-0.15L0.147,-0.15Z" style="fill-rule:nonzero;"/>
    </g>
    <g transform="matrix(300,0,0,300,256.243,367.3)">
        <path d="M0.083,-0L0.083,-0.7L0.425,-0.7C0.513,-0.7 0.579,-0.683 0.624,-0.65C0.668,-0.617 0.69,-0.573 0.69,-0.518C0.69,-0.481 0.681,-0.449 0.663,-0.423C0.645,-0.396 0.621,-0.375 0.589,-0.36C0.558,-0.345 0.522,-0.338 0.481,-0.338L0.5,-0.379C0.544,-0.379 0.583,-0.372 0.617,-0.357C0.651,-0.343 0.677,-0.322 0.696,-0.294C0.716,-0.266 0.725,-0.231 0.725,-0.191C0.725,-0.131 0.702,-0.084 0.654,-0.05C0.607,-0.017 0.537,-0 0.445,-0L0.083,-0ZM0.244,-0.122L0.433,-0.122C0.475,-0.122 0.507,-0.129 0.529,-0.143C0.551,-0.156 0.562,-0.178 0.562,-0.208C0.562,-0.238 0.551,-0.26 0.529,-0.274C0.507,-0.288 0.475,-0.295 0.433,-0.295L0.232,-0.295L0.232,-0.413L0.405,-0.413C0.445,-0.413 0.475,-0.42 0.496,-0.434C0.516,-0.447 0.527,-0.468 0.527,-0.496C0.527,-0.523 0.516,-0.544 0.496,-0.558C0.475,-0.572 0.445,-0.578 0.405,-0.578L0.244,-0.578L0.244,-0.122Z" style="fill-rule:nonzero;"/>
    </g>
    <g transform="matrix(300,0,0,300,485.609,367.3)">
    </g>
</svg>
